<?xml version="1.0"?>
<svg width="524.67001" height="418.27099" xmlns="http://www.w3.org/2000/svg" xmlns:svg="http://www.w3.org/2000/svg">
 <g class="layer">
  <title>Layer 1</title>
  <path d="m251.74,416.42l-159.45,0.06c-8.01,0 -15.19,-4.14 -19.2,-11.08c-2,-3.47 -3,-7.27 -3,-11.08c-0.01,-3.8 0.99,-7.61 3,-11.08l79.67,-145.05c4.01,-6.94 11.18,-11.08 19.19,-11.08s15.19,4.13 19.2,11.07l79.78,145.01c2,3.46 3,7.26 3,11.07c0,3.8 -1,7.6 -3,11.07c-4,6.94 -11.17,11.09 -19.19,11.09l0,0zm-179.65,-22.1c0,3.46 17.6,-4 19.42,-0.84c3.64,6.31 -6.51,21 0.78,21c0,0 173.27,-3.83 176.91,-10.15c1.82,-3.15 2.73,-6.61 2.73,-10.08s-0.92,-6.92 -2.74,-10.08l-79.79,-145.01c-3.63,-6.29 -10.16,-10.06 -17.45,-10.05c-7.28,0 -99.86,161.75 -99.86,165.21l0,0z" fill="#3f3d56" id="svg_2"/>
  <path d="m253.52,414.42c-2,4 91.61,2.77 92.72,2.77c0,0 26.31,-0.58 26.86,-1.54c0.28,-0.48 0.42,-1 0.42,-1.53s-0.14,-1.05 -0.42,-1.53l-12.12,-22.02c-0.55,-0.96 -1.54,-1.53 -2.65,-1.53c-0.04,0 -0.11,0.04 -0.2,0.12c-16.16,14.44 -36.08,23.99 -57.76,24.32c-23.04,0.34 -46.73,0.69 -46.85,0.94l0,0z" fill="#3f3d56" id="svg_3"/>
  <g id="svg_5">
   <polygon fill="#a0616a" id="svg_6" points="403.87773 411.30541 394.83299 411.30765 390.51828 376.42194 403.86746 376.41823 403.87773 411.30541"/>
   <path d="m372.89,411.11l0,0c-0.28,0.48 -0.43,2.01 -0.43,2.56l0,0c0,1.69 1.38,3.07 3.07,3.07l28.01,-0.01c1.16,0 2.1,-0.94 2.09,-2.1l0,-1.16s1.39,-3.51 -1.47,-7.83c0,0 -3.54,3.39 -8.84,-1.91l-1.56,-2.83l-11.31,8.27l-6.27,0.78c-1.37,0.17 -2.59,-0.03 -3.29,1.16l0,0z" fill="#2f2e41" id="svg_7"/>
  </g>
  <g id="svg_8">
   <polygon fill="#a0616a" id="svg_9" points="369.19708 381.46752 360.62951 384.36642 345.36911 352.70019 358.01396 348.42131 369.19708 381.46752"/>
   <path d="m339.78,391.21l0,0c-0.12,0.54 0.23,2.04 0.41,2.56l0,0c0.54,1.6 2.29,2.46 3.89,1.92l26.53,-8.98c1.1,-0.37 1.69,-1.56 1.32,-2.65l-0.38,-1.11s0.19,-3.76 -3.9,-6.94c0,0 -2.27,4.34 -8.99,1.02l-2.38,-2.18l-8.06,11.46l-5.69,2.74c-1.25,0.6 -2.46,0.81 -2.75,2.16l0,0z" fill="#2f2e41" id="svg_10"/>
  </g>
  <polygon fill="#2f2e41" id="svg_11" points="355.22599 179.09003 337.68255 237.19081 316.97199 289.45207 349.76053 364.08569 361.91802 358.67731 347.37062 290.11706 377.87822 243.59436 392.11437 388.82623 404.27349 388.14652 420.76309 212.84336 423.11421 174.67566 355.22599 179.09003"/>
  <path d="m408.21,50.39l-25.67,4.73l-2.02,11.49l-15.54,7.43l-8.07,84.45s-13.51,17.56 -2.7,22.96l68.9,-6.77s3.38,-12.49 0,-13.68s-3.39,-31.02 -3.39,-31.02l15.52,-61.37l-22.97,-8.09l-4.06,-10.13z" fill="#e6e6e6" id="svg_12"/>
  <circle cx="393.07" cy="29.44" fill="#a0616a" id="svg_13" r="20.73"/>
  <path d="m406.8,32.51c-1.66,0.91 -0.09,5.23 -1.12,5.6c-1.2,0.44 -5.55,-4.52 -5.61,-10.08c-0.01,-1.68 0.37,-2.49 0,-4.48c-0.49,-2.61 -1.98,-5.68 -3.36,-5.6c-0.82,0.05 -1.62,1.21 -1.68,2.24c-0.09,1.45 1.32,2.02 1.12,2.8c-0.39,1.49 -6.3,2.52 -8.4,0.01c-1.65,-1.97 -0.39,-5.43 -1.13,-5.61c-0.54,-0.13 -1.12,1.78 -3.36,3.93c-0.84,0.81 -2.09,2.01 -2.8,1.68c-1.02,-0.48 -0.28,-3.88 -0.56,-3.92c-0.23,-0.04 -0.38,2.35 -1.68,4.48c-1.67,2.74 -5.11,4.85 -6.72,3.92c-0.98,-0.57 -1.06,-2.15 -1.12,-3.36c-0.12,-2.54 -3.81,-8.37 -2.86,-11.09c1.94,-5.53 5.27,-1.63 6.78,-3.47c2.03,-2.5 3.86,-1.16 7.28,-3.93c3.33,-2.7 3.36,-5.42 5.6,-5.6c2.01,-0.16 2.73,1.98 5.04,1.68c1.96,-0.26 2.39,-1.93 3.92,-1.69c1.4,0.23 1.5,1.69 3.36,2.24c1.19,0.36 1.46,-0.15 2.8,0c2.81,0.33 4.69,2.88 5.05,3.36c1.36,1.85 0.83,2.63 2.24,4.48c1.21,1.6 3.91,0.92 4.92,1.72c3.31,2.62 4.73,7.44 4.76,12.93c0.02,3.85 -0.48,5.79 -1.6,10.64c-0.85,3.68 -4.78,8.44 -6.95,10.57c-0.58,0.57 -2.21,2.16 -3.36,1.68c-1.09,-0.46 -1.12,-2.53 -1.12,-2.8c0,-0.94 0.25,-2.1 2.24,-5.05c2.09,-3.09 2.93,-3.44 2.8,-4.48c-0.23,-1.84 -3.17,-3.52 -4.48,-2.8l0,0z" fill="#2f2e41" id="svg_14"/>
  <g id="svg_15">
   <path d="m334.49,225.76c-0.64,5.4 1.62,10.11 5.06,10.53s6.75,-3.64 7.39,-9.04c0.29,-2.37 0.01,-4.6 -0.67,-6.4l2.44,-22.93l-10.78,-0.91l-1.27,22.69c-1.09,1.59 -1.88,3.69 -2.17,6.06l0,0z" fill="#a0616a" id="svg_16"/>
   <path d="m365.49,73.5s-5.59,0.08 -9.28,7.3c-1.97,3.84 -12.49,75.63 -12.49,75.63l-9.68,58.81l16.5,0.08l12.86,-55.69l10.81,-32.3l-8.72,-53.83z" fill="#e6e6e6" id="svg_17"/>
  </g>
  <path d="m411.93,217.13c-1.58,5.21 -0.18,10.24 3.14,11.25s7.28,-2.4 8.86,-7.61c0.69,-2.28 0.81,-4.52 0.45,-6.41l6.42,-22.15l-10.46,-2.79l-5.22,22.13c-1.35,1.37 -2.5,3.3 -3.19,5.58l0,0z" fill="#a0616a" id="svg_18"/>
  <path d="m423.42,69.63s8.1,-6.08 14.86,3.37c6.76,9.46 9.49,87.14 9.49,87.14l-18.9,47.97l-14.19,-4.72l13.49,-58.78l-23.66,-44.57l18.91,-30.41l0,0z" fill="#e6e6e6" id="svg_19"/>
  <g id="svg_20">
   <circle cx="218.48" cy="311.43" fill="#f43f5e" id="svg_21" r="73"/>
   <g id="svg_22">
    <circle cx="218.49" cy="349.48" fill="#fff" id="svg_23" r="6.7"/>
    <path d="m218.46,266.68c-0.61,4.09 0.49,4.95 0.5,22.59c0,17.63 3.66,41.28 -0.47,41.28s-5.65,-48.8 -20.02,-53.12c-16.89,-5.08 21.99,-23.99 19.99,-10.75z" fill="#fff" id="svg_24"/>
   </g>
  </g>
  <path d="m120.5,348.7l-6.59,13.94c7.97,-5.72 20.42,-10.65 30.34,-13.29c-9.24,-4.46 -20.54,-11.65 -27.29,-18.77l3.8,14.72c-44.48,-9.05 -76.42,-43.17 -76.43,-82.26l-1.61,-0.55c0.02,40.83 31.51,76.96 77.78,86.21z" fill="#3f3d56" id="svg_25"/>
 </g>
</svg>