<?xml version="1.0" encoding="utf-8"?>
<!-- Generator: Adobe Illustrator 16.0.0, SVG Export Plug-In . SVG Version: 6.00 Build 0)  -->
<!DOCTYPE svg PUBLIC "-//W3C//DTD SVG 1.1//EN" "http://www.w3.org/Graphics/SVG/1.1/DTD/svg11.dtd">
<svg version="1.1" id="Layer_1" xmlns="http://www.w3.org/2000/svg" xmlns:xlink="http://www.w3.org/1999/xlink" x="0px" y="0px"
	 width="50px" height="50px" viewBox="0 0 50 50" enable-background="new 0 0 50 50" xml:space="preserve">
<path display="none" fill="#F3F4F6" d="M42.188,3.125c1.728,0,3.125,1.399,3.125,3.125v37.5c0,1.727-1.397,3.125-3.125,3.125H7.813
	c-1.726,0-3.125-1.398-3.125-3.125V6.25c0-1.726,1.399-3.125,3.125-3.125H42.188z M7.813,0c-3.452,0-6.25,2.798-6.25,6.25v37.5
	c0,3.451,2.798,6.25,6.25,6.25h34.375c3.451,0,6.25-2.799,6.25-6.25V6.25c0-3.452-2.799-6.25-6.25-6.25H7.813z"/>
<path display="none" fill="#D73B54" d="M20.313,9.375c0-1.726,1.399-3.125,3.125-3.125h3.125c1.728,0,3.125,1.399,3.125,3.125v9.375
	c0,1.726-1.397,3.125-3.125,3.125h-3.125c-1.726,0-3.125-1.399-3.125-3.125V9.375z M7.813,9.375c0-1.726,1.399-3.125,3.125-3.125
	h3.125c1.726,0,3.125,1.399,3.125,3.125V31.25c0,1.727-1.399,3.125-3.125,3.125h-3.125c-1.726,0-3.125-1.398-3.125-3.125V9.375z
	 M32.813,9.375c0-1.726,1.398-3.125,3.125-3.125h3.125c1.728,0,3.125,1.399,3.125,3.125v31.25c0,1.727-1.397,3.125-3.125,3.125
	h-3.125c-1.727,0-3.125-1.398-3.125-3.125V9.375z"/>
<path fill="#C13658" d="M9.375,7.812c-1.726,0-3.125,1.399-3.125,3.125v3.125c0,1.727,1.399,3.125,3.125,3.125H31.25
	c1.727,0,3.125-1.398,3.125-3.125v-3.125c0-1.726-1.398-3.125-3.125-3.125H9.375z"/>
<path fill="#E05F77" d="M9.375,20.312c-1.726,0-3.125,1.4-3.125,3.125v3.125c0,1.728,1.399,3.125,3.125,3.125h9.375
	c1.726,0,3.125-1.397,3.125-3.125v-3.125c0-1.726-1.399-3.125-3.125-3.125H9.375z"/>
<path fill="#DD768C" d="M9.375,32.813c-1.726,0-3.125,1.399-3.125,3.126v3.125c0,1.728,1.399,3.125,3.125,3.125h31.25
	c1.727,0,3.125-1.397,3.125-3.125v-3.125c0-1.727-1.398-3.126-3.125-3.126H9.375z"/>
</svg>
