<?xml version="1.0"?>
<svg width="821.67627" height="579.00958" xmlns="http://www.w3.org/2000/svg" xmlns:svg="http://www.w3.org/2000/svg" data-name="Layer 1">
 <g class="layer">
  <title>Layer 1</title>
  <path d="m371.24,218.5l-52.4,0a19.02,19.02 0 0 0 -19,19l0,56.81c-0.67,-0.04 -1.34,-0.1 -2,-0.18a67,67 0 1 1 73.1,-77.63c0.11,0.66 0.21,1.33 0.3,2z" fill="#f2f2f2" id="svg_1" transform="translate(-189.16186 -160.49521)"/>
  <path d="m989.84,216.5l-671,0a21.02,21.02 0 0 0 -21,21l0,354a21.02,21.02 0 0 0 21,21l671,0a21.02,21.02 0 0 0 21,-21l0,-354a21.02,21.02 0 0 0 -21,-21zm19,375a19.02,19.02 0 0 1 -19,19l-671,0a19.02,19.02 0 0 1 -19,-19l0,-354a19.02,19.02 0 0 1 19,-19l671,0a19.02,19.02 0 0 1 19,19l0,354z" fill="#3f3d56" id="svg_2" transform="translate(-189.16186 -160.49521)"/>
  <path d="m956.84,273.86l-605,0a1,1 0 0 1 0,-2l605,0a1,1 0 0 1 0,2z" fill="#3f3d56" id="svg_3" transform="translate(-189.16186 -160.49521)"/>
  <path d="m522.84,569.5a1,1 0 0 1 -1,-1l0,-329a1,1 0 1 1 2,0l0,329a1,1 0 0 1 -1,1z" fill="#3f3d56" id="svg_4" transform="translate(-189.16186 -160.49521)"/>
  <path d="m673.84,569.5a1,1 0 0 1 -1,-1l0,-329a1,1 0 1 1 2,0l0,329a1,1 0 0 1 -1,1z" fill="#3f3d56" id="svg_5" transform="translate(-189.16186 -160.49521)"/>
  <path d="m824.84,569.5a1,1 0 0 1 -1,-1l0,-329a1,1 0 1 1 2,0l0,329a1,1 0 0 1 -1,1z" fill="#3f3d56" id="svg_6" transform="translate(-189.16186 -160.49521)"/>
  <path d="m425.75,377.08l-36.54,0a4.5,4.5 0 0 1 -4.5,-4.5l0,-43.12a4.5,4.5 0 0 1 4.5,-4.5l36.54,0a4.5,4.5 0 0 1 4.5,4.5l0,43.12a4.5,4.5 0 0 1 -4.5,4.5z" fill="#cd3262" id="svg_7" transform="translate(-189.16186 -160.49521)"/>
  <path d="m477.75,500.08l-36.54,0a4.5,4.5 0 0 1 -4.5,-4.5l0,-43.12a4.5,4.5 0 0 1 4.5,-4.5l36.54,0a4.5,4.5 0 0 1 4.5,4.5l0,43.12a4.5,4.5 0 0 1 -4.5,4.5z" fill="#cd3262" id="svg_8" transform="translate(-189.16186 -160.49521)"/>
  <path d="m595.75,403.08l-36.54,0a4.51,4.51 0 0 1 -4.5,-4.5l0,-43.12a4.51,4.51 0 0 1 4.5,-4.5l36.54,0a4.51,4.51 0 0 1 4.5,4.5l0,43.12a4.51,4.51 0 0 1 -4.5,4.5z" fill="#cd3262" id="svg_9" transform="translate(-189.16186 -160.49521)"/>
  <path d="m748.75,356.08l-36.54,0a4.51,4.51 0 0 1 -4.5,-4.5l0,-43.12a4.51,4.51 0 0 1 4.5,-4.5l36.54,0a4.51,4.51 0 0 1 4.5,4.5l0,43.12a4.51,4.51 0 0 1 -4.5,4.5z" fill="#cd3262" id="svg_10" transform="translate(-189.16186 -160.49521)"/>
  <path d="m889.75,356.08l-36.54,0a4.51,4.51 0 0 1 -4.5,-4.5l0,-43.12a4.51,4.51 0 0 1 4.5,-4.5l36.54,0a4.51,4.51 0 0 1 4.5,4.5l0,43.12a4.51,4.51 0 0 1 -4.5,4.5z" fill="#cd3262" id="svg_11" transform="translate(-189.16186 -160.49521)"/>
  <path d="m954.75,368.08l-36.54,0a4.51,4.51 0 0 1 -4.5,-4.5l0,-43.12a4.51,4.51 0 0 1 4.5,-4.5l36.54,0a4.51,4.51 0 0 1 4.5,4.5l0,43.12a4.51,4.51 0 0 1 -4.5,4.5z" fill="#e6e6e6" id="svg_12" transform="translate(-189.16186 -160.49521)"/>
  <path d="m925.75,445.08l-36.54,0a4.51,4.51 0 0 1 -4.5,-4.5l0,-43.12a4.51,4.51 0 0 1 4.5,-4.5l36.54,0a4.51,4.51 0 0 1 4.5,4.5l0,43.12a4.51,4.51 0 0 1 -4.5,4.5z" fill="#e6e6e6" id="svg_13" transform="translate(-189.16186 -160.49521)"/>
  <path d="m801.75,429.08l-36.54,0a4.51,4.51 0 0 1 -4.5,-4.5l0,-43.12a4.51,4.51 0 0 1 4.5,-4.5l36.54,0a4.51,4.51 0 0 1 4.5,4.5l0,43.12a4.51,4.51 0 0 1 -4.5,4.5z" fill="#ff6584" id="svg_14" transform="translate(-189.16186 -160.49521)"/>
  <path d="m730.75,445.08l-36.54,0a4.51,4.51 0 0 1 -4.5,-4.5l0,-43.12a4.51,4.51 0 0 1 4.5,-4.5l36.54,0a4.51,4.51 0 0 1 4.5,4.5l0,43.12a4.51,4.51 0 0 1 -4.5,4.5z" fill="#e6e6e6" id="svg_15" transform="translate(-189.16186 -160.49521)"/>
  <path d="m577.75,513.08l-36.54,0a4.51,4.51 0 0 1 -4.5,-4.5l0,-43.12a4.51,4.51 0 0 1 4.5,-4.5l36.54,0a4.51,4.51 0 0 1 4.5,4.5l0,43.12a4.51,4.51 0 0 1 -4.5,4.5z" fill="#e6e6e6" id="svg_16" transform="translate(-189.16186 -160.49521)"/>
  <path d="m392.75,456.08l-36.54,0a4.5,4.5 0 0 1 -4.5,-4.5l0,-43.12a4.5,4.5 0 0 1 4.5,-4.5l36.54,0a4.5,4.5 0 0 1 4.5,4.5l0,43.12a4.5,4.5 0 0 1 -4.5,4.5z" fill="#ff6584" id="svg_17" transform="translate(-189.16186 -160.49521)"/>
  <path d="m495.75,377.08l-36.54,0a4.5,4.5 0 0 1 -4.5,-4.5l0,-43.12a4.5,4.5 0 0 1 4.5,-4.5l36.54,0a4.5,4.5 0 0 1 4.5,4.5l0,43.12a4.5,4.5 0 0 1 -4.5,4.5z" fill="#e6e6e6" id="svg_18" transform="translate(-189.16186 -160.49521)"/>
  <path d="m465.84,257.5l-57,0a4,4 0 0 1 0,-8l57,0a4,4 0 0 1 0,8z" fill="#ccc" id="svg_19" transform="translate(-189.16186 -160.49521)"/>
  <path d="m626.84,257.5l-57,0a4,4 0 0 1 0,-8l57,0a4,4 0 0 1 0,8z" fill="#ccc" id="svg_20" transform="translate(-189.16186 -160.49521)"/>
  <path d="m777.84,257.5l-57,0a4,4 0 0 1 0,-8l57,0a4,4 0 0 1 0,8z" fill="#ccc" id="svg_21" transform="translate(-189.16186 -160.49521)"/>
  <path d="m918.84,257.5l-57,0a4,4 0 0 1 0,-8l57,0a4,4 0 0 1 0,8z" fill="#ccc" id="svg_22" transform="translate(-189.16186 -160.49521)"/>
  <path d="m338.17,550.39a10.06,10.06 0 0 1 -8.7,-12.73l-25.63,-23.87l13.55,-3.43l25.21,20.44a10.11,10.11 0 0 1 -4.43,19.59z" fill="#ffb8b8" id="svg_23" transform="translate(-189.16186 -160.49521)"/>
  <polygon fill="#ffb8b8" id="svg_24" points="184.404 566.253 196.664 566.253 202.496 518.965 184.402 518.965 184.404 566.253"/>
  <path d="m370.94,723.24l38.53,0a0,0 0 0 1 0,0l0,14.89a0,0 0 0 1 0,0l-23.64,0a14.89,14.89 0 0 1 -14.89,-14.89l0,0a0,0 0 0 1 0,0z" fill="#2f2e41" id="svg_25" transform="translate(591.28005 1300.86337) rotate(179.99738)"/>
  <polygon fill="#ffb8b8" id="svg_26" points="100.345 557.401 112.193 560.555 129.994 516.359 112.509 511.705 100.345 557.401"/>
  <path d="m285.31,718.54l38.53,0a0,0 0 0 1 0,0l0,14.89a0,0 0 0 1 0,0l-23.65,0a14.89,14.89 0 0 1 -14.88,-14.89l0,0a0,0 0 0 1 0,0z" fill="#2f2e41" id="svg_27" transform="matrix(-0.96635, -0.25722, 0.25722, -0.96635, 222.9961, 1345.38778)"/>
  <path d="m389.12,717.79l-18.7,0a4.73,4.73 0 0 1 -4.73,-4.29l-11.36,-117.93a3.75,3.75 0 0 0 -7.32,-0.71l-32.97,110.19a4.74,4.74 0 0 1 -5.7,3.25l-17.4,-4.35a4.75,4.75 0 0 1 -3.45,-5.79c0.28,-1.11 28.41,-111.03 28.65,-112.16c6.38,-46.96 14,-59.55 18.1,-66.31c0.34,-0.56 0.65,-1.07 0.93,-1.56c0.35,-0.61 2.51,-6.65 3.88,-10.57a4.79,4.79 0 0 1 2.44,-2.97c17.21,-8.8 37.34,-2.71 43.11,-0.63a4.68,4.68 0 0 1 2.33,1.81c17.29,26.07 8.81,177.49 6.93,207.58a4.75,4.75 0 0 1 -4.74,4.44z" fill="#2f2e41" id="svg_28" transform="translate(-189.16186 -160.49521)"/>
  <circle cx="151.68" cy="234.02" fill="#ffb8b8" id="svg_29" r="24.56"/>
  <path d="m338.24,512.33l-0.17,-0.17c-0.33,-0.32 -33.06,-32.38 -28.82,-62.02c1.81,-12.68 12.07,-20.78 29.66,-23.43a27.13,27.13 0 0 1 30,19.12l17.4,59.48l-48.07,7.02z" fill="#ccc" id="svg_30" transform="translate(-189.16186 -160.49521)"/>
  <path d="m321.49,535.14l-23.31,-23.18a13.14,13.14 0 0 1 -3.48,-12.39l11.29,-45.92a10.35,10.35 0 0 1 13.18,-7.4a10.41,10.41 0 0 1 6.8,12.8l-11.88,40.39l19.22,20.64l-11.82,15.06z" fill="#ccc" id="svg_31" transform="translate(-189.16186 -160.49521)"/>
  <path d="m446.57,456.06a10.06,10.06 0 0 1 -14.89,4.03l-31.13,16.13l1.38,-13.71l27.6,-17.07a10.11,10.11 0 0 1 17.04,10.62z" fill="#ffb8b8" id="svg_32" transform="translate(-189.16186 -160.49521)"/>
  <path d="m428.28,466.26l-30.34,13.11a12.81,12.81 0 0 1 -12.48,-1.34l-38.59,-27.64a10.36,10.36 0 0 1 -1.97,-14.99a10.41,10.41 0 0 1 14.41,-1.57l33.08,26.04l26.3,-10.17l9.59,16.56z" fill="#ccc" id="svg_33" transform="translate(-189.16186 -160.49521)"/>
  <path d="m344.92,402.39c3.03,-3.8 8.69,-4 12.85,-6.51c5.45,-3.28 7.71,-10.61 5.95,-16.72s-6.94,-10.88 -12.88,-13.16s-12.55,-2.31 -18.81,-1.21c-9.33,1.64 -18.52,6 -24.21,13.57s-7.14,18.67 -1.98,26.61c2.37,3.66 6.03,6.67 6.97,10.92c1.24,5.58 -2.67,10.96 -6.86,14.85c-4.78,4.42 -10.26,8.13 -14.44,13.12s-6.98,11.81 -5.07,18.03c1.6,5.22 6.26,9.06 11.36,10.99s10.67,2.2 16.12,2.31c5.3,0.1 10.93,-0.03 15.39,-2.89c4.78,-3.05 7.33,-8.85 7.52,-14.52s-1.71,-11.22 -4.25,-16.3c-1.51,-3.02 -3.27,-5.95 -4.28,-9.18s-1.18,-6.89 0.43,-9.86c1.7,-3.12 5.12,-5.01 8.61,-5.69c0.18,-0.04 0.37,-0.07 0.57,-0.1a7.4,7.4 0 0 0 6.33,-8.63c-0.39,-2.21 -0.36,-4.33 0.68,-5.63z" fill="#2f2e41" id="svg_34" transform="translate(-189.16186 -160.49521)"/>
  <polygon fill="#a0616a" id="svg_35" points="483.229 567.3 470.969 567.3 465.137 520.012 483.231 520.013 483.229 567.3"/>
  <path d="m462.21,563.8l23.65,0a0,0 0 0 1 0,0l0,14.88a0,0 0 0 1 0,0l-38.53,0a0,0 0 0 1 0,0l0,0a14.89,14.89 0 0 1 14.88,-14.88z" fill="#2f2e41" id="svg_36"/>
  <polygon fill="#a0616a" id="svg_37" points="572.184 553.413 561.033 558.506 536.079 517.917 552.538 510.399 572.184 553.413"/>
  <path d="m743.47,716.96l23.64,0a0,0 0 0 1 0,0l0,14.89a0,0 0 0 1 0,0l-38.53,0a0,0 0 0 1 0,0l0,0a14.89,14.89 0 0 1 14.89,-14.89z" fill="#2f2e41" id="svg_38" transform="translate(-422.52781 215.68843) rotate(-24.54855)"/>
  <path d="m725.64,568.35a10.06,10.06 0 0 0 0.8,-15.4l14.42,-32.7l-18.31,3.11l-10.88,30.57a10.11,10.11 0 0 0 13.97,14.42z" fill="#a0616a" id="svg_39" transform="translate(-189.16186 -160.49521)"/>
  <path d="m671.61,715.33l-11.71,0a4.52,4.52 0 0 1 -4.49,-4.18l-6.39,-170.56a4.5,4.5 0 0 1 4.93,-4.8l67.73,7.19a4.5,4.5 0 0 1 4.06,4.4l1.42,75.23a3.49,3.49 0 0 0 0.24,1.2l27.78,72.05a4.5,4.5 0 0 1 -2.64,5.84l-11.87,4.37a4.5,4.5 0 0 1 -5.56,-2.16l-34.13,-66.37a4.47,4.47 0 0 1 -0.4,-1.14l-5.83,-28.1a3.5,3.5 0 0 0 -6.91,0.31l-11.76,102.73a4.5,4.5 0 0 1 -4.47,3.99z" fill="#2f2e41" id="svg_40" transform="translate(-189.16186 -160.49521)"/>
  <circle cx="488.28" cy="222.18" fill="#a0616a" id="svg_41" r="24.56"/>
  <path d="m694.28,556.19a87.66,87.66 0 0 1 -46.87,-14.2l-0.24,-0.16l0.03,-0.29l9.39,-109.42a15.42,15.42 0 0 1 14.6,-14.06c12.18,-0.56 28.53,0.15 37.29,6.67c13.23,9.85 19.61,24.69 17.49,40.71c-4.38,33.22 0.58,78.03 1.17,83.03l0.04,0.36l-0.33,0.15a77.27,77.27 0 0 1 -32.57,7.21z" fill="#cd3262" id="svg_42" transform="translate(-189.16186 -160.49521)"/>
  <path d="m727.02,548.65a5.01,5.01 0 0 1 -3.68,-1.62l-5.37,-5.86a5.03,5.03 0 0 1 -1.11,-4.8l12.25,-41.46l-18.64,-39.14a8.83,8.83 0 0 1 -0.6,-5.88a8.81,8.81 0 0 1 16.31,-2.09l25.29,41.05a11.95,11.95 0 0 1 0.72,11.19l-20.61,45.67a4.99,4.99 0 0 1 -3.76,2.88a5.05,5.05 0 0 1 -0.8,0.06z" fill="#cd3262" id="svg_43" transform="translate(-189.16186 -160.49521)"/>
  <path d="m553.9,469.45a10.06,10.06 0 0 0 15,-3.58l35.44,4.6l-8.15,-16.69l-32.4,-1.81a10.11,10.11 0 0 0 -9.89,17.48z" fill="#a0616a" id="svg_44" transform="translate(-189.16186 -160.49521)"/>
  <path d="m632.01,478.56a13.43,13.43 0 0 1 -1.84,-0.13l-55.75,-7.73a5.54,5.54 0 0 1 -4.26,-3.11a5.66,5.66 0 0 1 -0.31,-0.83l0,0a5.56,5.56 0 0 1 0.57,-4.43l4.62,-7.65a5.58,5.58 0 0 1 4.75,-2.68l0.01,0l48.59,0.05l36.3,-32.52a9.87,9.87 0 0 1 6.11,-2.5a9.83,9.83 0 0 1 7.37,16.82l-36.22,40.28a13.36,13.36 0 0 1 -9.94,4.43z" fill="#cd3262" id="svg_45" transform="translate(-189.16186 -160.49521)"/>
  <path d="m680.23,404.52c2.25,-5.19 4.15,-12.11 -0.16,-15.78c-2.49,-2.13 -6.09,-2.14 -9.36,-2.4c-9.22,-0.75 -18.71,-4.99 -23.21,-13.07s-1.99,-20.08 6.51,-23.72c5.73,-2.46 12.29,-0.79 18.29,0.91l18.01,5.11c5.35,1.52 10.96,3.19 14.82,7.2c6.14,6.4 5.68,17.21 0.8,24.62s-12.23,15.13 -20.64,17.94l-5.06,-0.81z" fill="#2f2e41" id="svg_46" transform="translate(-189.16186 -160.49521)"/>
 </g>
</svg>